# 3ds Max Wavefront OBJ Exporter v0.97b - (c)2007 guruware
# File Created: 25.11.2016 23:30:29

usemtl Trunk.jpg

#
# object Extrude_NURBS_1
#

v 1.8231 -0.0000 -0.5553
v 1.6478 0.6412 -0.4910
v 1.5952 0.6353 -0.3143
v 1.7981 -0.0000 -0.2974
v 0.5954 -0.0000 -1.0786
v 0.5569 0.6000 -1.0611
v 0.7981 0.5954 -0.8980
v 0.8271 -0.0046 -0.9255
v -0.1287 -0.0000 -2.1309
v -0.4791 -0.0000 -2.0209
v -0.3657 0.6000 -1.7860
v -0.0919 0.6000 -1.8645
v -0.8929 -0.0000 -1.0872
v -1.2209 -0.0043 -0.9199
v -1.1863 0.5957 -0.8927
v -0.8601 0.6000 -1.0392
v -2.0759 -0.0112 -0.5836
v -2.0536 -0.0000 -0.1655
v -1.7215 0.6061 -0.1899
v -1.8104 0.6280 -0.4736
v -1.2209 0.0000 0.5312
v -1.1964 -0.0149 0.8089
v -1.1637 0.5851 0.7818
v -1.1950 0.6000 0.4751
v -1.2409 -0.0262 1.7866
v -0.9088 0.0000 1.9209
v -0.8812 0.6122 1.6501
v -1.0852 0.6141 1.5588
v 0.1281 0.0000 1.3994
v 0.4666 -0.0141 1.4933
v 0.4475 0.5859 1.4467
v 0.1110 0.6000 1.3528
v 1.2926 -0.0226 1.5987
v 1.4552 0.0000 1.3175
v 1.2648 0.6204 1.2304
v 1.1569 0.5858 1.4593
v 1.2630 0.0000 0.4542
v 1.3632 -0.0224 0.0683
v 1.3169 0.5776 0.0670
v 1.2232 0.6000 0.3967
v 1.0177 0.0000 1.7257
v 0.9160 0.5946 1.5528
v 1.7069 -0.0000 -0.8178
v -1.3274 -0.0302 1.1378
v -1.4045 0.0000 1.5012
v -1.1747 0.6710 1.2834
v -1.1954 0.6007 0.9910
v 1.2522 0.6000 0.8314
v 1.2952 0.0000 0.8606
v -0.6259 0.3524 -1.5955
v -0.6348 -0.0106 -1.6218
v -0.3000 0.5715 1.4411
v -0.3237 -0.0357 1.5161
v 0.2187 0.0049 -2.0060
v 0.1376 0.6049 -1.7457
v 0.3499 0.6000 -1.2780
v -1.4534 0.3825 -0.9147
v -1.3919 0.6245 -0.8529
v -1.3342 0.5682 0.2394
v -1.6435 0.3494 0.1128
v -1.3715 -0.0318 0.2473
v 1.3894 1.1267 -0.4386
v 1.3496 1.1265 -0.2665
v 1.1182 1.3286 0.0007
v 0.6909 1.3466 -0.7943
v 1.2832 1.1269 -0.6428
v 1.0313 1.3511 0.2777
v 0.4677 1.3512 -0.9392
v 1.0764 1.0487 0.9990
v 0.1188 1.1493 -1.4191
v 0.3274 1.3474 -1.1598
v 0.9703 1.0261 1.2262
v 0.7579 1.0486 1.2936
v -0.3455 1.1447 -1.4586
v -0.0610 1.1445 -1.5370
v -0.5576 0.5894 -1.5218
v -0.6620 0.5920 -1.2275
v -0.5161 0.9067 -1.4083
v 0.4053 1.3369 1.1702
v 0.1045 1.3510 1.0792
v -0.9980 1.3469 -0.7912
v -0.7186 1.3513 -0.9107
v -0.6224 1.1540 1.4005
v -1.2788 0.8880 -0.7834
v -1.3205 1.1203 -0.6747
v -1.1701 1.2355 -0.7451
v -0.8983 1.1275 1.2985
v -1.4402 1.1198 -0.0917
v -1.4849 1.1089 -0.4020
v -1.1108 0.8643 0.9220
v -1.0063 1.1533 1.0641
v -1.0150 1.2217 0.8335
v -1.5310 0.5883 0.0876
v -1.4335 0.8798 0.0904
v -0.9642 1.3363 0.6211
v -0.9814 1.3513 0.3725
v 0.8035 1.9797 -0.3647
v 0.9106 1.9923 0.0000
v 0.5890 2.0019 -0.6488
v 0.8906 1.9956 0.1835
v 0.8677 1.9993 0.3930
v 1.0665 1.3511 0.6653
v 0.4465 2.0021 -0.7385
v -0.0143 1.9966 -0.8886
v 0.3106 2.0023 -0.8240
v 0.6657 1.9923 0.7143
v 0.3060 1.9795 0.8477
v -0.4816 1.2462 -1.2991
v -0.3715 1.9965 -0.8505
v 0.0986 1.9786 0.8580
v -0.1625 1.9774 0.8709
v -0.2315 1.3280 1.1394
v -0.7246 2.0014 -0.5749
v -0.5345 1.9988 -0.7233
v -0.8474 1.9830 -0.2615
v -0.4837 1.9918 0.7330
v -0.7545 1.9923 0.4730
v -1.2838 1.2385 0.0777
v -0.8614 1.9879 0.0864
v -0.8061 1.9902 0.2863
v 0.0000 2.0014 -0.0250
v -1.5083 -0.0044 -0.9350
v -1.8941 -0.0000 -0.9397
v 1.5560 0.6465 -0.6831
v 0.4053 -0.0038 -1.3507
v -1.1185 1.3195 0.1443
v -1.6808 -0.0144 0.1102
v -1.6835 0.6756 -0.7722
v -0.7237 -0.0354 -1.3230
v -0.5411 1.3432 -1.0873
# 130 vertices

vn 0.9497 0.2904 -0.1168
vn 0.9183 0.3834 -0.0986
vn 0.8521 0.3263 0.4092
vn 0.8198 0.2038 0.5352
vn 0.6710 0.0857 -0.7365
vn 0.6696 0.1315 -0.7310
vn 0.3438 0.1621 -0.9250
vn 0.3479 0.0584 -0.9357
vn 0.0464 0.4136 -0.9093
vn -0.7028 0.2920 -0.6487
vn -0.6059 0.4053 -0.6846
vn 0.0773 0.4648 -0.8820
vn -0.5990 0.1094 -0.7932
vn -0.1137 0.0576 -0.9918
vn -0.2453 0.1957 -0.9495
vn -0.5710 0.1734 -0.8024
vn -0.9024 0.4161 -0.1124
vn -0.7859 0.3175 0.5307
vn -0.8163 0.3967 0.4198
vn -0.8662 0.4923 -0.0856
vn -0.9535 0.0648 0.2944
vn -0.9926 0.0725 -0.0972
vn -0.9797 0.1868 -0.0730
vn -0.9395 0.1812 0.2908
vn -0.6250 0.4070 0.6661
vn 0.1973 0.3082 0.9306
vn -0.0090 0.4115 0.9114
vn -0.6120 0.4644 0.6401
vn -0.0214 0.0841 0.9962
vn -0.3277 0.0631 0.9427
vn -0.2332 0.2474 0.9404
vn -0.0341 0.2163 0.9757
vn 0.6366 0.3188 0.7022
vn 0.9725 0.2303 0.0348
vn 0.8959 0.3935 0.2060
vn 0.5968 0.4466 0.6666
vn 0.9929 0.0736 0.0931
vn 0.8415 0.0696 0.5358
vn 0.8332 0.2129 0.5104
vn 0.9820 0.1649 0.0926
vn -0.0775 0.2135 0.9739
vn 0.0731 0.3997 0.9137
vn 0.4605 0.2174 -0.8606
vn -0.9653 0.1619 -0.2050
vn -0.9322 0.3243 0.1607
vn -0.9231 0.3565 0.1442
vn -0.9637 0.2239 -0.1454
vn 0.9737 0.2200 -0.0587
vn 0.9775 0.0580 -0.2029
vn -0.8974 0.2239 -0.3801
vn -0.9456 0.0465 -0.3221
vn 0.3506 0.2445 0.9040
vn 0.4042 0.0893 0.9103
vn 0.7867 0.2869 -0.5465
vn 0.6730 0.3716 -0.6395
vn 0.8434 0.1814 -0.5057
vn -0.0748 0.1695 -0.9827
vn -0.1725 0.3019 -0.9376
vn -0.6475 0.2049 0.7340
vn -0.5916 0.2238 0.7745
vn -0.5873 0.0501 0.8078
vn 0.8478 0.5225 -0.0913
vn 0.8594 0.4041 0.3132
vn 0.8872 0.2674 0.3759
vn 0.4282 0.2228 -0.8758
vn 0.5592 0.3974 -0.7276
vn 0.9621 0.2567 0.0916
vn 0.6451 0.2274 -0.7295
vn 0.8468 0.4321 0.3103
vn 0.5591 0.4050 -0.7235
vn 0.6950 0.2435 -0.6765
vn 0.5598 0.5416 0.6271
vn 0.1209 0.4811 0.8683
vn -0.4043 0.4951 -0.7690
vn 0.1194 0.5559 -0.8226
vn -0.8405 0.3210 -0.4364
vn -0.8726 0.2229 -0.4345
vn -0.8240 0.2776 -0.4939
vn -0.0938 0.3790 0.9206
vn -0.0320 0.3562 0.9339
vn -0.4239 0.3056 -0.8526
vn -0.5384 0.3196 -0.7797
vn 0.0471 0.4778 0.8772
vn -0.3192 0.2898 -0.9023
vn -0.6456 0.5091 -0.5692
vn -0.5334 0.3666 -0.7623
vn -0.5646 0.5753 0.5918
vn -0.8350 0.4720 0.2830
vn -0.8055 0.5826 -0.1083
vn -0.9600 0.2770 -0.0411
vn -0.8429 0.4571 0.2839
vn -0.9542 0.2984 0.0223
vn -0.6775 0.3029 0.6702
vn -0.6706 0.2757 0.6886
vn -0.9627 0.2706 -0.0050
vn -0.9115 0.3075 0.2731
vn 0.5950 0.7841 -0.1764
vn 0.6503 0.7530 0.1008
vn 0.3902 0.7528 -0.5302
vn 0.6087 0.7920 0.0469
vn 0.6232 0.7576 0.1938
vn 0.9477 0.2959 0.1197
vn 0.3879 0.8010 -0.4560
vn 0.0560 0.8023 -0.5943
vn 0.3362 0.7761 -0.5336
vn 0.4044 0.7703 0.4931
vn 0.0419 0.7821 0.6217
vn -0.7404 0.3550 -0.5708
vn -0.3946 0.7563 -0.5219
vn -0.0128 0.8211 0.5706
vn 0.0657 0.7862 0.6145
vn 0.2849 0.3300 0.9000
vn -0.4663 0.7594 -0.4537
vn -0.3130 0.8364 -0.4500
vn -0.5933 0.7975 -0.1101
vn -0.3433 0.8209 0.4563
vn -0.6809 0.7137 0.1646
vn -0.6528 0.3288 0.6824
vn -0.6072 0.7275 0.3194
vn -0.5659 0.8095 0.1565
vn -0.0011 1.0000 0.0054
vn 0.0326 0.0478 -0.9983
vn -0.3953 0.2780 -0.8755
vn 0.5940 0.3373 -0.7303
vn 0.8812 0.1160 -0.4582
vn -0.6511 0.2814 0.7049
vn -0.5008 0.0452 0.8644
vn -0.4401 0.4158 -0.7958
vn -0.9183 0.1031 -0.3821
vn -0.8071 0.2903 -0.5141
# 130 vertex normals

vt 0.0538 0.0775
vt 0.0536 0.1683
vt 0.0339 0.1683
vt 0.0341 0.0775
vt 0.1506 0.0775
vt 0.1531 0.1683
vt 0.1217 0.1683
vt 0.1218 0.0775
vt 0.2431 0.0775
vt 0.2711 0.0775
vt 0.2646 0.1683
vt 0.2389 0.1683
vt 0.3392 0.0775
vt 0.3785 0.0775
vt 0.3786 0.1683
vt 0.3364 0.1683
vt 0.4316 0.0775
vt 0.4617 0.0775
vt 0.4618 0.1683
vt 0.4349 0.1683
vt 0.5363 0.0775
vt 0.5679 0.0775
vt 0.5679 0.1683
vt 0.5320 0.1683
vt 0.6155 0.0775
vt 0.6424 0.0775
vt 0.6424 0.1683
vt 0.6194 0.1683
vt 0.7209 0.0775
vt 0.7538 0.0775
vt 0.7538 0.1683
vt 0.7200 0.1683
vt 0.8031 0.0775
vt 0.8236 0.0775
vt 0.8237 0.1683
vt 0.8044 0.1683
vt 0.8852 0.0775
vt 0.9086 0.0775
vt 0.9086 0.1683
vt 0.8874 0.1685
vt 0.7822 0.0775
vt 0.7822 0.1683
vt 0.0715 0.0775
vt 0.5808 0.0775
vt 0.5943 0.0775
vt 0.5943 0.1683
vt 0.5794 0.1683
vt 0.9412 0.0775
vt 0.9410 0.1683
vt 0.8626 0.1688
vt 0.8627 0.0775
vt 0.2998 0.1325
vt 0.2997 0.0771
vt 0.6829 0.1683
vt 0.6829 0.0775
vt 0.2165 0.0775
vt 0.2163 0.1683
vt 0.1875 0.1683
vt 0.3880 0.1360
vt 0.3887 0.1683
vt 0.5010 0.1683
vt 0.4855 0.1325
vt 0.5009 0.0775
vt 0.0542 0.2480
vt 0.0365 0.2480
vt 0.9437 0.2480
vt 0.9244 0.2819
vt 0.1214 0.2820
vt 0.0717 0.2480
vt 0.8872 0.2819
vt 0.1537 0.2820
vt 0.8230 0.2362
vt 0.2159 0.2507
vt 0.1880 0.2820
vt 0.8032 0.2362
vt 0.7837 0.2362
vt 0.2663 0.2507
vt 0.2361 0.2507
vt 0.2937 0.1686
vt 0.3156 0.1686
vt 0.2887 0.2170
vt 0.7613 0.2819
vt 0.7244 0.2819
vt 0.3742 0.2820
vt 0.3315 0.2820
vt 0.6474 0.2521
vt 0.3922 0.2125
vt 0.4028 0.2470
vt 0.3880 0.2651
vt 0.6198 0.2521
vt 0.4656 0.2469
vt 0.4329 0.2470
vt 0.5836 0.2129
vt 0.5974 0.2520
vt 0.5831 0.2669
vt 0.4840 0.1683
vt 0.4809 0.2128
vt 0.5687 0.2820
vt 0.5320 0.2820
vt 0.0616 0.3771
vt 0.9687 0.3771
vt 0.9168 0.3790
vt 0.1139 0.3804
vt 0.8928 0.3795
vt 0.8653 0.3801
vt 0.8419 0.2820
vt 0.1407 0.3805
vt 0.2229 0.3796
vt 0.1662 0.3805
vt 0.8159 0.3790
vt 0.7641 0.3771
vt 0.2885 0.2687
vt 0.2876 0.3796
vt 0.7315 0.3775
vt 0.6904 0.3780
vt 0.6846 0.2819
vt 0.3688 0.3804
vt 0.3251 0.3800
vt 0.4303 0.3776
vt 0.6328 0.3789
vt 0.5674 0.3790
vt 0.4821 0.2671
vt 0.4954 0.3783
vt 0.5327 0.3787
vt 0.4751 0.4557
vt 0.4976 0.5687
vt 0.4337 0.4702
vt 0.5093 0.4560
vt 0.5833 0.4725
vt 0.5365 0.4562
vt 0.6096 0.5117
vt 0.6126 0.5373
vt 0.6013 0.6042
vt 0.6152 0.5597
vt 0.5733 0.6389
vt 0.5548 0.6498
vt 0.4948 0.6681
vt 0.5371 0.6603
vt 0.4483 0.6635
vt 0.4270 0.6480
vt 0.4023 0.6299
vt 0.3863 0.5916
vt 0.3845 0.5491
vt 0.3917 0.5247
vt 0.3984 0.5020
vt 0.3892 0.0775
vt 0.4050 0.0775
vt 0.0714 0.1683
vt 0.1875 0.0775
vt 0.4943 0.2820
vt 0.4847 0.0775
vt 0.4050 0.1683
vt 0.3155 0.0771
vt 0.3047 0.2831
# 154 texture coords

g Extrude_NURBS_1

s off
f 1/1/1 2/2/2 3/3/3
f 3/3/3 4/4/4 1/1/1
f 5/5/5 6/6/6 7/7/7
f 7/7/7 8/8/8 5/5/5
f 9/9/9 10/10/10 11/11/11
f 11/11/11 12/12/12 9/9/9
f 13/13/13 14/14/14 15/15/15
f 15/15/15 16/16/16 13/13/13
f 17/17/17 18/18/18 19/19/19
f 19/19/19 20/20/20 17/17/17
f 21/21/21 22/22/22 23/23/23
f 23/23/23 24/24/24 21/21/21
f 25/25/25 26/26/26 27/27/27
f 27/27/27 28/28/28 25/25/25
f 29/29/29 30/30/30 31/31/31
f 31/31/31 32/32/32 29/29/29
f 33/33/33 34/34/34 35/35/35
f 35/35/35 36/36/36 33/33/33
f 37/37/37 38/38/38 39/39/39
f 39/39/39 40/40/40 37/37/37
f 41/41/41 42/42/42 31/31/31
f 7/7/7 43/43/43 8/8/8
f 44/44/44 45/45/45 46/46/46
f 46/46/46 47/47/47 44/44/44
f 4/48/4 3/49/3 39/39/39
f 48/50/48 34/34/34 49/51/49
f 50/52/50 10/10/10 51/53/51
f 52/54/52 26/26/26 53/55/53
f 54/56/54 55/57/55 56/58/56
f 57/59/57 58/60/58 15/15/15
f 59/61/59 60/62/60 61/63/61
f 2/2/2 62/64/62 63/65/63
f 63/65/63 3/3/3 2/2/2
f 63/66/63 64/67/64 39/39/39
f 7/7/7 65/68/65 66/69/66
f 40/40/40 39/39/39 64/67/64
f 64/67/64 67/70/67 40/40/40
f 6/6/6 68/71/68 65/68/65
f 65/68/65 7/7/7 6/6/6
f 48/50/48 69/72/69 35/35/35
f 70/73/70 71/74/71 56/58/56
f 36/36/36 72/75/72 73/76/73
f 73/76/73 42/42/42 36/36/36
f 12/12/12 11/11/11 74/77/74
f 74/77/74 75/78/75 12/12/12
f 42/42/42 73/76/73 31/31/31
f 76/79/76 77/80/77 78/81/78
f 32/32/32 31/31/31 79/82/79
f 79/82/79 80/83/80 32/32/32
f 16/16/16 15/15/15 81/84/81
f 81/84/81 82/85/82 16/16/16
f 52/54/52 83/86/83 27/27/27
f 84/87/84 85/88/85 86/89/86
f 28/28/28 27/27/27 83/86/83
f 83/86/83 87/90/87 28/28/28
f 20/20/20 19/19/19 88/91/88
f 88/91/88 89/92/89 20/20/20
f 90/93/90 91/94/91 92/95/92
f 93/96/93 59/61/59 94/97/94
f 24/24/24 23/23/23 95/98/95
f 95/98/95 96/99/96 24/24/24
f 62/64/62 97/100/97 63/65/63
f 63/66/63 97/101/97 98/102/98
f 65/68/65 99/103/99 66/69/66
f 67/70/67 100/104/100 101/105/101
f 101/105/101 102/106/102 67/70/67
f 68/71/68 103/107/103 99/103/99
f 99/103/99 65/68/65 68/71/68
f 102/106/102 101/105/101 69/72/69
f 70/73/70 104/108/104 105/109/105
f 72/75/72 106/110/106 73/76/73
f 75/78/75 104/108/104 70/73/70
f 73/76/73 106/110/106 107/111/107
f 108/112/108 109/113/109 74/77/74
f 80/83/80 110/114/110 111/115/111
f 111/115/111 112/116/112 80/83/80
f 82/85/82 81/84/81 113/117/113
f 113/117/113 114/118/114 82/85/82
f 112/116/112 111/115/111 83/86/83
f 85/88/85 115/119/115 113/117/113
f 87/90/87 116/120/116 91/94/91
f 89/92/89 115/119/115 85/88/85
f 91/94/91 116/120/116 117/121/117
f 118/122/118 119/123/119 88/91/88
f 96/99/96 95/98/95 117/121/117
f 117/121/117 120/124/120 96/99/96
f 111/125/111 121/126/121 116/127/116
f 110/128/110 121/126/121 111/125/111
f 106/129/106 121/126/121 107/130/107
f 101/131/101 121/126/121 106/129/106
f 100/132/100 121/126/121 101/131/101
f 97/133/97 121/126/121 98/134/98
f 99/135/99 121/126/121 97/133/97
f 103/136/103 121/126/121 99/135/99
f 104/137/104 121/126/121 105/138/105
f 109/139/109 121/126/121 104/137/104
f 114/140/114 113/141/113 121/126/121
f 115/142/115 121/126/121 113/141/113
f 119/143/119 121/126/121 115/142/115
f 120/144/120 117/145/117 121/126/121
f 116/127/116 121/126/121 117/145/117
f 113/117/113 81/84/81 86/89/86
f 119/123/119 115/119/115 88/91/88
f 117/121/117 95/98/95 92/95/92
f 111/115/111 116/120/116 83/86/83
f 107/111/107 79/82/79 73/76/73
f 101/105/101 106/110/106 69/72/69
f 98/102/98 64/67/64 63/66/63
f 99/103/99 97/100/97 66/69/66
f 105/109/105 71/74/71 70/73/70
f 109/113/109 104/108/104 74/77/74
f 50/52/50 77/80/77 76/79/76
f 57/59/57 122/146/122 123/147/123
f 78/81/78 108/112/108 74/77/74
f 84/87/84 15/15/15 58/60/58
f 60/62/60 19/19/19 18/18/18
f 94/97/94 118/122/118 88/91/88
f 90/93/90 23/23/23 47/47/47
f 52/54/52 27/27/27 26/26/26
f 52/54/52 112/116/112 83/86/83
f 31/31/31 30/30/30 41/41/41
f 73/76/73 79/82/79 31/31/31
f 48/50/48 35/35/35 34/34/34
f 48/50/48 102/106/102 69/72/69
f 39/39/39 38/38/38 4/48/4
f 39/39/39 3/49/3 63/66/63
f 7/7/7 124/148/124 43/43/43
f 66/69/66 124/148/124 7/7/7
f 56/58/56 125/149/125 54/56/54
f 56/58/56 55/57/55 70/73/70
f 28/28/28 46/46/46 45/45/45
f 45/45/45 25/25/25 28/28/28
f 87/90/87 91/94/91 46/46/46
f 46/46/46 28/28/28 87/90/87
f 87/90/87 83/86/83 116/120/116
f 92/95/92 91/94/91 117/121/117
f 47/47/47 23/23/23 22/22/22
f 22/22/22 44/44/44 47/47/47
f 95/98/95 23/23/23 90/93/90
f 47/47/47 46/46/46 90/93/90
f 90/93/90 92/95/92 95/98/95
f 46/46/46 91/94/91 90/93/90
f 24/24/24 59/61/59 61/63/61
f 61/63/61 21/21/21 24/24/24
f 96/99/96 126/150/126 59/61/59
f 59/61/59 24/24/24 96/99/96
f 120/124/120 119/123/119 126/150/126
f 126/150/126 96/99/96 120/124/120
f 121/126/121 119/143/119 120/144/120
f 118/122/118 126/150/126 119/123/119
f 60/62/60 18/18/18 127/151/127
f 60/62/60 59/61/59 93/96/93
f 127/151/127 61/63/61 60/62/60
f 93/96/93 19/19/19 60/62/60
f 94/97/94 88/91/88 19/19/19
f 94/97/94 59/61/59 126/150/126
f 19/19/19 93/96/93 94/97/94
f 126/150/126 118/122/118 94/97/94
f 20/20/20 128/152/128 123/147/123
f 123/147/123 17/17/17 20/20/20
f 89/92/89 85/88/85 128/152/128
f 128/152/128 20/20/20 89/92/89
f 89/92/89 88/91/88 115/119/115
f 16/16/16 77/80/77 129/153/129
f 129/153/129 13/13/13 16/16/16
f 82/85/82 130/154/130 77/80/77
f 77/80/77 16/16/16 82/85/82
f 114/118/114 109/113/109 130/154/130
f 130/154/130 82/85/82 114/118/114
f 121/126/121 109/139/109 114/140/114
f 86/89/86 85/88/85 113/117/113
f 86/89/86 81/84/81 84/87/84
f 128/152/128 85/88/85 84/87/84
f 57/59/57 123/147/123 128/152/128
f 57/59/57 14/14/14 122/146/122
f 51/53/51 129/153/129 50/52/50
f 11/11/11 10/10/10 50/52/50
f 78/81/78 74/77/74 11/11/11
f 78/81/78 77/80/77 130/154/130
f 108/112/108 130/154/130 109/113/109
f 11/11/11 76/79/76 78/81/78
f 130/154/130 108/112/108 78/81/78
f 50/52/50 76/79/76 11/11/11
f 129/153/129 77/80/77 50/52/50
f 57/59/57 15/15/15 14/14/14
f 128/152/128 58/60/58 57/59/57
f 84/87/84 58/60/58 128/152/128
f 81/84/81 15/15/15 84/87/84
f 12/12/12 55/57/55 54/56/54
f 54/56/54 9/9/9 12/12/12
f 75/78/75 70/73/70 55/57/55
f 55/57/55 12/12/12 75/78/75
f 75/78/75 74/77/74 104/108/104
f 5/5/5 125/149/125 56/58/56
f 56/58/56 6/6/6 5/5/5
f 103/136/103 105/138/105 121/126/121
f 68/71/68 71/74/71 105/109/105
f 105/109/105 103/107/103 68/71/68
f 6/6/6 56/58/56 71/74/71
f 71/74/71 68/71/68 6/6/6
f 1/1/1 43/43/43 124/148/124
f 124/148/124 2/2/2 1/1/1
f 62/64/62 66/69/66 97/100/97
f 2/2/2 124/148/124 66/69/66
f 66/69/66 62/64/62 2/2/2
f 40/40/40 48/50/48 49/51/49
f 49/51/49 37/37/37 40/40/40
f 100/132/100 98/134/98 121/126/121
f 67/70/67 102/106/102 48/50/48
f 48/50/48 40/40/40 67/70/67
f 67/70/67 64/67/64 98/102/98
f 98/102/98 100/104/100 67/70/67
f 33/33/33 36/36/36 42/42/42
f 42/42/42 41/41/41 33/33/33
f 72/75/72 69/72/69 106/110/106
f 36/36/36 35/35/35 69/72/69
f 69/72/69 72/75/72 36/36/36
f 32/32/32 52/54/52 53/55/53
f 53/55/53 29/29/29 32/32/32
f 110/128/110 107/130/107 121/126/121
f 80/83/80 112/116/112 52/54/52
f 52/54/52 32/32/32 80/83/80
f 80/83/80 79/82/79 107/111/107
f 107/111/107 110/114/110 80/83/80
# 224 faces

