# Blender v2.78 (sub 0) OBJ File: 'Project.blend'
# www.blender.org
mtllib wall.mtl
o Cube
v 3.385799 -0.462584 -0.200384
v 3.385799 -0.462584 0.200384
v -3.385800 -0.462584 0.200384
v -3.385798 -0.462584 -0.200384
v 3.385801 3.866919 -0.200384
v 3.385797 3.866919 0.200384
v -3.385801 3.866919 0.200384
v -3.385799 3.866919 -0.200384
vt 0.3333 0.6667
vt 0.0000 1.0000
vt 0.0000 0.6667
vt 0.3333 0.6667
vt 0.0000 0.3333
vt 0.3333 0.3333
vt 0.6667 0.0000
vt 0.6667 0.3333
vt 0.0000 0.0000
vt 0.3333 0.3333
vt 0.0000 0.3333
vt 1.0000 0.3333
vt 0.6667 0.0000
vt 1.0000 0.0000
vt 0.3333 1.0000
vt 0.0000 0.6667
vt 0.3333 0.0000
vt 0.3333 0.0000
vt 0.6667 0.3333
vt 0.6667 0.6667
vn 0.0000 -1.0000 0.0000
vn 0.0000 1.0000 0.0000
vn 1.0000 -0.0000 0.0000
vn -0.0000 -0.0000 1.0000
vn -1.0000 -0.0000 -0.0000
vn 0.0000 0.0000 -1.0000
usemtl wall.jpg
s off
f 2/1/1 4/2/1 1/3/1
f 8/4/2 6/5/2 5/6/2
f 5/6/3 2/7/3 1/8/3
f 6/9/4 3/10/4 2/11/4
f 3/12/5 8/13/5 4/14/5
f 1/8/6 8/4/6 5/6/6
f 2/1/1 3/15/1 4/2/1
f 8/4/2 7/16/2 6/5/2
f 5/6/3 6/17/3 2/7/3
f 6/9/4 7/18/4 3/10/4
f 3/12/5 7/19/5 8/13/5
f 1/8/6 4/20/6 8/4/6
